<?xml version="1.0" encoding="UTF-8"?>
<svg version="1.1" xmlns="http://www.w3.org/2000/svg" width="512" height="512">
<path d="M0 0 C1.09162414 -0.00872064 1.09162414 -0.00872064 2.20530128 -0.01761746 C4.64518032 -0.03222159 7.084054 -0.01833099 9.52392578 -0.00457001 C11.29024775 -0.00917877 13.05656588 -0.01553152 14.82287598 -0.02347898 C19.677714 -0.04019879 24.53223808 -0.03191387 29.38707733 -0.01953411 C34.62233116 -0.01049681 39.8575304 -0.02444679 45.09277344 -0.0354538 C55.34904982 -0.0532577 65.60520924 -0.04939069 75.86149025 -0.03780323 C84.19559312 -0.02877655 92.52966317 -0.0275416 100.86376953 -0.0318985 C102.04907887 -0.03251143 103.2343882 -0.03312436 104.455616 -0.03375587 C106.86340842 -0.03503475 109.27120083 -0.0363316 111.67899323 -0.03764623 C134.26678696 -0.04905752 156.8545158 -0.03592972 179.44229889 -0.01444477 C198.83151952 0.00342669 218.22064437 0.00032274 237.60986328 -0.01811981 C260.11579974 -0.03951683 282.6216793 -0.04795883 305.12762451 -0.03567076 C307.52665201 -0.03439654 309.92567952 -0.03313905 312.32470703 -0.0318985 C314.09534452 -0.03097285 314.09534452 -0.03097285 315.90175247 -0.03002849 C324.22764703 -0.02657209 332.55350555 -0.0324102 340.87939453 -0.04181671 C351.02330232 -0.05302508 361.16708627 -0.05002109 371.31097984 -0.02869374 C376.48841545 -0.01816771 381.66564445 -0.01408797 386.84307861 -0.02729034 C391.58038077 -0.03918786 396.3172843 -0.03269532 401.05455017 -0.01138014 C402.77047836 -0.00690286 404.48644006 -0.0092055 406.2023468 -0.01888329 C408.53153822 -0.03101482 410.85935721 -0.01860661 413.18847656 0 C414.48310822 0.00064941 415.77773987 0.00129882 417.11160278 0.00196791 C422.35121449 0.75631725 425.38911078 3.2348093 428.96923828 7.00336456 C431.36727404 12.16836465 431.34805364 16.90359336 430.59423828 22.50336456 C428.28489633 27.47733185 425.31891915 29.83026846 420.59423828 32.50336456 C417.11160278 33.00476122 417.11160278 33.00476122 413.18847656 33.00672913 C412.09685243 33.01544977 412.09685243 33.01544977 410.98317528 33.02434659 C408.54329624 33.03895071 406.10442257 33.02506012 403.66455078 33.01129913 C401.89822882 33.0159079 400.13191068 33.02226065 398.36560059 33.03020811 C393.51076256 33.04692791 388.65623848 33.038643 383.80139923 33.02626324 C378.5661454 33.01722593 373.33094617 33.03117592 368.09570312 33.04218292 C357.83942674 33.05998682 347.58326732 33.05611981 337.32698631 33.04453236 C328.99288344 33.03550568 320.65881339 33.03427072 312.32470703 33.03862762 C311.1393977 33.03924056 309.95408836 33.03985349 308.73286057 33.04048499 C306.32506815 33.04176387 303.91727574 33.04306072 301.50948334 33.04437536 C278.9216896 33.05578664 256.33396076 33.04265884 233.74617767 33.02117389 C214.35695704 33.00330243 194.96783219 33.00640639 175.57861328 33.02484894 C153.07267682 33.04624595 130.56679726 33.05468795 108.06085205 33.04239988 C105.66182455 33.04112566 103.26279705 33.03986818 100.86376953 33.03862762 C99.09313204 33.03770197 99.09313204 33.03770197 97.28672409 33.03675762 C88.96082953 33.03330121 80.63497101 33.03913932 72.30908203 33.04854584 C62.16517424 33.0597542 52.02139029 33.05675021 41.87749672 33.03542286 C36.70006111 33.02489684 31.52283212 33.0208171 26.34539795 33.03401947 C21.60809579 33.04591698 16.87119226 33.03942445 12.13392639 33.01810926 C10.4179982 33.01363199 8.7020365 33.01593462 6.98612976 33.02561241 C4.65693834 33.03774394 2.32911935 33.02533573 0 33.00672913 C-1.29463165 33.00607972 -2.58926331 33.00543031 -3.92312622 33.00476122 C-9.16273792 32.25041188 -12.20063422 29.77191983 -15.78076172 26.00336456 C-18.17879747 20.83836448 -18.15957707 16.10313576 -17.40576172 10.50336456 C-13.86043903 2.86728492 -8.20611281 0.00411633 0 0 Z " fill="#000000" transform="translate(49.40576171875,95.49663543701172)"/>
<path d="M0 0 C1.27620209 -0.01043099 2.55240417 -0.02086198 3.86727905 -0.03160906 C5.27610499 -0.02296159 6.68492865 -0.013935 8.09375 -0.00457001 C9.59608566 -0.00917996 11.09841681 -0.01553352 12.60073853 -0.02347898 C16.72589446 -0.04018263 20.85068041 -0.03192135 24.97583771 -0.01953411 C29.42581188 -0.01049015 33.87572209 -0.0244501 38.32568359 -0.0354538 C47.04190467 -0.0532506 55.75798806 -0.04939387 64.47421455 -0.03780323 C71.55736548 -0.02877375 78.64047779 -0.02754281 85.72363281 -0.0318985 C86.73131903 -0.03251143 87.73900524 -0.03312436 88.7772274 -0.03375587 C90.82425182 -0.03503476 92.87127623 -0.03633161 94.91830063 -0.03764623 C114.11825091 -0.04905543 133.31812483 -0.03593299 152.51806259 -0.01444477 C168.99645497 0.00342652 185.47473465 0.0003225 201.953125 -0.01811981 C221.08385067 -0.03952051 240.21450939 -0.04795676 259.34524536 -0.03567076 C261.38478596 -0.03439655 263.42432657 -0.03313906 265.46386719 -0.0318985 C266.96915009 -0.03097285 266.96915009 -0.03097285 268.50484276 -0.03002849 C275.58039327 -0.02657319 282.65590137 -0.03240782 289.73144531 -0.04181671 C298.35289265 -0.05302918 306.9741943 -0.05001249 315.59562492 -0.02869374 C319.99537043 -0.01817318 324.39487293 -0.01407856 328.7946167 -0.02729034 C332.82138187 -0.03919935 336.8476785 -0.03267663 340.87440109 -0.01138014 C342.33191845 -0.00690771 343.7894753 -0.00919477 345.24696732 -0.01888329 C347.22711758 -0.03103758 349.20737857 -0.01618445 351.1875 0 C352.28771484 0.00064941 353.38792969 0.00129882 354.52148438 0.00196791 C359.47236255 0.80995591 362.57780188 3.43394549 365.96875 7.00336456 C368.36678575 12.16836465 368.34756535 16.90359336 367.59375 22.50336456 C365.28152681 27.48353759 362.29731027 29.79109773 357.59375 32.50336456 C354.52148438 33.00476122 354.52148438 33.00476122 351.1875 33.00672913 C349.91129791 33.01716012 348.63509583 33.0275911 347.32022095 33.03833818 C345.91139501 33.02969072 344.50257135 33.02066412 343.09375 33.01129913 C341.59141434 33.01590909 340.08908319 33.02226264 338.58676147 33.03020811 C334.46160554 33.04691176 330.33681959 33.03865048 326.21166229 33.02626324 C321.76168812 33.01721927 317.31177791 33.03117922 312.86181641 33.04218292 C304.14559533 33.05997972 295.42951194 33.05612299 286.71328545 33.04453236 C279.63013452 33.03550288 272.54702221 33.03427194 265.46386719 33.03862762 C264.45618097 33.03924056 263.44849476 33.03985349 262.4102726 33.04048499 C260.36324818 33.04176388 258.31622377 33.04306073 256.26919937 33.04437536 C237.06924909 33.05578456 217.86937517 33.04266212 198.66943741 33.02117389 C182.19104503 33.00330261 165.71276535 33.00640662 149.234375 33.02484894 C130.10364933 33.04624964 110.97299061 33.05468589 91.84225464 33.04239988 C89.80271404 33.04112567 87.76317343 33.03986819 85.72363281 33.03862762 C84.21834991 33.03770197 84.21834991 33.03770197 82.68265724 33.03675762 C75.60710673 33.03330232 68.53159863 33.03913694 61.45605469 33.04854584 C52.83460735 33.0597583 44.2133057 33.05674162 35.59187508 33.03542286 C31.19212957 33.02490231 26.79262707 33.02080769 22.3928833 33.03401947 C18.36611813 33.04592848 14.3398215 33.03940576 10.31309891 33.01810926 C8.85558155 33.01363683 7.3980247 33.01592389 5.94053268 33.02561241 C3.96038242 33.03776671 1.98012143 33.02291357 0 33.00672913 C-1.10021484 33.00607972 -2.20042969 33.00543031 -3.33398438 33.00476122 C-8.28486255 32.19677322 -11.39030188 29.57278364 -14.78125 26.00336456 C-17.17928575 20.83836448 -17.16006535 16.10313576 -16.40625 10.50336456 C-13.12897798 3.44462482 -7.72715749 0.00456101 0 0 Z " fill="#000000" transform="translate(48.40625,239.49663543701172)"/>
<path d="M0 0 C0.89927467 -0.00623996 1.79854935 -0.01247993 2.72507477 -0.01890898 C5.73300026 -0.03484095 8.74011563 -0.02223377 11.74804688 -0.00964355 C13.90666171 -0.01506457 16.06527283 -0.02218711 18.22387695 -0.03088379 C24.08333402 -0.04912236 29.94250943 -0.04204725 35.80197144 -0.02936745 C41.93309286 -0.01924264 48.06419013 -0.02863169 54.1953125 -0.03491211 C64.49158052 -0.04219 74.78773378 -0.032597 85.08398438 -0.0135498 C96.98900804 0.00821911 108.89375769 0.00116785 120.79877472 -0.02085543 C131.01888627 -0.03900529 141.23891532 -0.04156974 151.45903778 -0.03110075 C157.56363924 -0.02486359 163.66811189 -0.02403644 169.77270508 -0.0372467 C175.51179842 -0.04879844 181.25053836 -0.04079144 186.98959351 -0.01766968 C189.09629733 -0.01237903 191.20303088 -0.01390241 193.3097229 -0.02272034 C196.1847485 -0.03364508 199.05864046 -0.01994897 201.93359375 0 C203.18525204 -0.01338433 203.18525204 -0.01338433 204.46219635 -0.02703905 C209.76786434 0.04440925 212.73619059 1.02944412 216.96679688 4.50793457 C220.59513351 8.32723629 221.27680146 11.39072463 221.46679688 16.50793457 C221.27680146 21.62514451 220.59513351 24.68863285 216.96679688 28.50793457 C211.88781259 32.68397865 208.22821084 33.08317923 201.93359375 33.01586914 C200.58468174 33.02522908 200.58468174 33.02522908 199.20851898 33.03477812 C196.20059349 33.0507101 193.19347812 33.03810291 190.18554688 33.0255127 C188.02693204 33.03093371 185.86832092 33.03805625 183.7097168 33.04675293 C177.85025973 33.0649915 171.99108432 33.05791639 166.13162231 33.04523659 C160.00050089 33.03511178 153.86940362 33.04450083 147.73828125 33.05078125 C137.44201323 33.05805915 127.14585997 33.04846614 116.84960938 33.02941895 C104.94458571 33.00765003 93.03983606 33.01470129 81.13481903 33.03672457 C70.91470748 33.05487443 60.69467843 33.05743888 50.47455597 33.04696989 C44.36995451 33.04073273 38.26548186 33.03990558 32.16088867 33.05311584 C26.42179533 33.06466758 20.68305539 33.05666058 14.94400024 33.03353882 C12.83729642 33.02824817 10.73056287 33.02977155 8.62387085 33.03858948 C5.74884525 33.04951422 2.87495329 33.03581811 0 33.01586914 C-0.83443886 33.02479203 -1.66887772 33.03371491 -2.5286026 33.04290819 C-7.83427059 32.97145989 -10.80259684 31.98642502 -15.03320312 28.50793457 C-18.66153976 24.68863285 -19.34320771 21.62514451 -19.53320312 16.50793457 C-19.34320771 11.39072463 -18.66153976 8.32723629 -15.03320312 4.50793457 C-9.95421884 0.33189049 -6.29461709 -0.06731009 0 0 Z " fill="#000000" transform="translate(51.033203125,383.4920654296875)"/>
</svg>
